<svg width="831" height="1977" viewBox="0 0 831 1977" fill="none" xmlns="http://www.w3.org/2000/svg">
<path opacity="0.2" d="M38.5775 4.91406H36.9395V1971.46H38.5775V4.91406Z" fill="#1A1A1A" fill-opacity="0.9"/>
<path opacity="0.2" d="M71.4212 4.91406H69.7832V1971.46H71.4212V4.91406Z" fill="#1A1A1A" fill-opacity="0.9"/>
<path opacity="0.2" d="M104.261 4.91406H102.623V1971.46H104.261V4.91406Z" fill="#1A1A1A" fill-opacity="0.9"/>
<path opacity="0.2" d="M137.105 4.91406H135.467V1971.46H137.105V4.91406Z" fill="#1A1A1A" fill-opacity="0.9"/>
<path opacity="0.2" d="M202.788 4.91406H201.15V1971.46H202.788V4.91406Z" fill="#1A1A1A" fill-opacity="0.9"/>
<path opacity="0.2" d="M235.628 4.91406H233.99V1971.46H235.628V4.91406Z" fill="#1A1A1A" fill-opacity="0.9"/>
<path opacity="0.2" d="M268.476 4.91406H266.838V1971.46H268.476V4.91406Z" fill="#1A1A1A" fill-opacity="0.9"/>
<path opacity="0.2" d="M301.316 4.91406H299.678V1971.46H301.316V4.91406Z" fill="#1A1A1A" fill-opacity="0.9"/>
<path opacity="0.2" d="M366.999 4.91406H365.361V1971.46H366.999V4.91406Z" fill="#1A1A1A" fill-opacity="0.9"/>
<path opacity="0.2" d="M399.839 4.91406H398.201V1971.46H399.839V4.91406Z" fill="#1A1A1A" fill-opacity="0.9"/>
<path opacity="0.2" d="M432.683 4.91406H431.045V1971.46H432.683V4.91406Z" fill="#1A1A1A" fill-opacity="0.9"/>
<path opacity="0.2" d="M465.527 4.91406H463.889V1971.46H465.527V4.91406Z" fill="#1A1A1A" fill-opacity="0.9"/>
<path opacity="0.2" d="M531.21 4.91406H529.572V1971.46H531.21V4.91406Z" fill="#1A1A1A" fill-opacity="0.9"/>
<path opacity="0.2" d="M564.054 4.91406H562.416V1971.46H564.054V4.91406Z" fill="#1A1A1A" fill-opacity="0.9"/>
<path opacity="0.2" d="M596.89 4.91406H595.252V1971.46H596.89V4.91406Z" fill="#1A1A1A" fill-opacity="0.9"/>
<path opacity="0.2" d="M629.734 4.91406H628.096V1971.46H629.734V4.91406Z" fill="#1A1A1A" fill-opacity="0.9"/>
<path opacity="0.2" d="M695.206 5.45801H693.568V1972H695.206V5.45801Z" fill="#1A1A1A" fill-opacity="0.9"/>
<path opacity="0.2" d="M728.05 5.45801H726.412V1972H728.05V5.45801Z" fill="#1A1A1A" fill-opacity="0.9"/>
<path opacity="0.2" d="M760.894 5.45801H759.256V1972H760.894V5.45801Z" fill="#1A1A1A" fill-opacity="0.9"/>
<path opacity="0.2" d="M793.738 5.45801H792.1V1972H793.738V5.45801Z" fill="#1A1A1A" fill-opacity="0.9"/>
<path opacity="0.5" d="M6.55403 7.36816H4.91602V1969.01H6.55403V7.36816Z" fill="#1A1A1A" fill-opacity="0.9"/>
<path opacity="0.5" d="M169.949 4.91406H168.311V1971.46H169.949V4.91406Z" fill="#1A1A1A" fill-opacity="0.9"/>
<path opacity="0.5" d="M334.159 4.91406H332.521V1971.46H334.159V4.91406Z" fill="#1A1A1A" fill-opacity="0.9"/>
<path opacity="0.5" d="M498.367 4.91406H496.729V1971.46H498.367V4.91406Z" fill="#1A1A1A" fill-opacity="0.9"/>
<path opacity="0.5" d="M662.002 7H660.002V1972H662.002V7Z" fill="#1A1A1A" fill-opacity="0.9"/>
<path opacity="0.5" d="M825.761 7.91016H824.123V1969.55H825.761V7.91016Z" fill="#1A1A1A" fill-opacity="0.9"/>
<path opacity="0.2" d="M825.486 36.9375H4.91602V38.5755H825.486V36.9375Z" fill="#1A1A1A" fill-opacity="0.9"/>
<path opacity="0.2" d="M825.486 69.7773H4.91602V71.4154H825.486V69.7773Z" fill="#1A1A1A" fill-opacity="0.9"/>
<path opacity="0.2" d="M825.486 102.621H4.91602V104.259H825.486V102.621Z" fill="#1A1A1A" fill-opacity="0.9"/>
<path opacity="0.2" d="M825.486 135.462H4.91602V137.1H825.486V135.462Z" fill="#1A1A1A" fill-opacity="0.9"/>
<path opacity="0.5" d="M825.486 168.305H4.91602V169.943H825.486V168.305Z" fill="#1A1A1A" fill-opacity="0.9"/>
<path opacity="0.2" d="M825.486 201.147H4.91602V202.785H825.486V201.147Z" fill="#1A1A1A" fill-opacity="0.9"/>
<path opacity="0.2" d="M825.486 233.988H4.91602V235.626H825.486V233.988Z" fill="#1A1A1A" fill-opacity="0.9"/>
<path opacity="0.2" d="M825.486 266.832H4.91602V268.47H825.486V266.832Z" fill="#1A1A1A" fill-opacity="0.9"/>
<path opacity="0.2" d="M825.486 299.672H4.91602V301.31H825.486V299.672Z" fill="#1A1A1A" fill-opacity="0.9"/>
<path opacity="0.5" d="M825.486 332.516H4.91602V334.154H825.486V332.516Z" fill="#1A1A1A" fill-opacity="0.9"/>
<path opacity="0.2" d="M825.486 365.36H4.91602V366.998H825.486V365.36Z" fill="#1A1A1A" fill-opacity="0.9"/>
<path opacity="0.2" d="M825.486 398.199H4.91602V399.837H825.486V398.199Z" fill="#1A1A1A" fill-opacity="0.9"/>
<path opacity="0.2" d="M825.486 431.043H4.91602V432.681H825.486V431.043Z" fill="#1A1A1A" fill-opacity="0.9"/>
<path opacity="0.2" d="M825.486 463.883H4.91602V465.521H825.486V463.883Z" fill="#1A1A1A" fill-opacity="0.9"/>
<path opacity="0.5" d="M825.486 496.727H4.91602V498.365H825.486V496.727Z" fill="#1A1A1A" fill-opacity="0.9"/>
<path opacity="0.2" d="M825.486 529.569H4.91602V531.207H825.486V529.569Z" fill="#1A1A1A" fill-opacity="0.9"/>
<path opacity="0.2" d="M825.486 562.409H4.91602V564.047H825.486V562.409Z" fill="#1A1A1A" fill-opacity="0.9"/>
<path opacity="0.2" d="M825.486 595.253H4.91602V596.891H825.486V595.253Z" fill="#1A1A1A" fill-opacity="0.9"/>
<path opacity="0.2" d="M825.486 628.094H4.91602V629.732H825.486V628.094Z" fill="#1A1A1A" fill-opacity="0.9"/>
<path opacity="0.5" d="M825.487 659.876H5.94922V661.575H825.487V659.876Z" fill="#1A1A1A" fill-opacity="0.9"/>
<path opacity="0.5" d="M825.487 5.09473H5.94922V6.79325H825.487V5.09473Z" fill="#1A1A1A" fill-opacity="0.9"/>
<path opacity="0.2" d="M825.669 691.72H5.09961V693.358H825.669V691.72Z" fill="#1A1A1A" fill-opacity="0.9"/>
<path opacity="0.2" d="M825.669 724.56H5.09961V726.198H825.669V724.56Z" fill="#1A1A1A" fill-opacity="0.9"/>
<path opacity="0.2" d="M825.669 757.403H5.09961V759.041H825.669V757.403Z" fill="#1A1A1A" fill-opacity="0.9"/>
<path opacity="0.2" d="M825.669 790.244H5.09961V791.882H825.669V790.244Z" fill="#1A1A1A" fill-opacity="0.9"/>
<path opacity="0.5" d="M825.669 823.087H5.09961V824.725H825.669V823.087Z" fill="#1A1A1A" fill-opacity="0.9"/>
<path opacity="0.2" d="M825.669 855.93H5.09961V857.568H825.669V855.93Z" fill="#1A1A1A" fill-opacity="0.9"/>
<path opacity="0.2" d="M825.669 888.771H5.09961V890.409H825.669V888.771Z" fill="#1A1A1A" fill-opacity="0.9"/>
<path opacity="0.2" d="M825.669 921.614H5.09961V923.252H825.669V921.614Z" fill="#1A1A1A" fill-opacity="0.9"/>
<path opacity="0.2" d="M825.669 954.453H5.09961V956.091H825.669V954.453Z" fill="#1A1A1A" fill-opacity="0.9"/>
<path opacity="0.5" d="M825.669 987.297H5.09961V988.935H825.669V987.297Z" fill="#1A1A1A" fill-opacity="0.9"/>
<path opacity="0.2" d="M825.669 1020.14H5.09961V1021.78H825.669V1020.14Z" fill="#1A1A1A" fill-opacity="0.9"/>
<path opacity="0.2" d="M825.669 1052.98H5.09961V1054.62H825.669V1052.98Z" fill="#1A1A1A" fill-opacity="0.9"/>
<path opacity="0.2" d="M825.669 1085.83H5.09961V1087.46H825.669V1085.83Z" fill="#1A1A1A" fill-opacity="0.9"/>
<path opacity="0.2" d="M825.669 1118.66H5.09961V1120.3H825.669V1118.66Z" fill="#1A1A1A" fill-opacity="0.9"/>
<path opacity="0.5" d="M825.669 1151.51H5.09961V1153.15H825.669V1151.51Z" fill="#1A1A1A" fill-opacity="0.9"/>
<path opacity="0.2" d="M825.669 1184.35H5.09961V1185.99H825.669V1184.35Z" fill="#1A1A1A" fill-opacity="0.9"/>
<path opacity="0.2" d="M825.669 1217.19H5.09961V1218.83H825.669V1217.19Z" fill="#1A1A1A" fill-opacity="0.9"/>
<path opacity="0.2" d="M825.669 1250.03H5.09961V1251.67H825.669V1250.03Z" fill="#1A1A1A" fill-opacity="0.9"/>
<path opacity="0.2" d="M825.568 1282.88H4.99805V1284.51H825.568V1282.88Z" fill="#1A1A1A" fill-opacity="0.9"/>
<path opacity="0.5" d="M825.671 1314.66H6.13281V1316.36H825.671V1314.66Z" fill="#1A1A1A" fill-opacity="0.9"/>
<path opacity="0.2" d="M825.568 1347H4.99805V1348.64H825.568V1347Z" fill="#1A1A1A" fill-opacity="0.9"/>
<path opacity="0.2" d="M825.568 1379.84H4.99805V1381.48H825.568V1379.84Z" fill="#1A1A1A" fill-opacity="0.9"/>
<path opacity="0.2" d="M825.568 1412.68H4.99805V1414.32H825.568V1412.68Z" fill="#1A1A1A" fill-opacity="0.9"/>
<path opacity="0.2" d="M825.568 1445.52H4.99805V1447.16H825.568V1445.52Z" fill="#1A1A1A" fill-opacity="0.9"/>
<path opacity="0.5" d="M825.568 1478.37H4.99805V1480.01H825.568V1478.37Z" fill="#1A1A1A" fill-opacity="0.9"/>
<path opacity="0.2" d="M825.568 1511.21H4.99805V1512.85H825.568V1511.21Z" fill="#1A1A1A" fill-opacity="0.9"/>
<path opacity="0.2" d="M825.568 1544.05H4.99805V1545.69H825.568V1544.05Z" fill="#1A1A1A" fill-opacity="0.9"/>
<path opacity="0.2" d="M825.568 1576.89H4.99805V1578.53H825.568V1576.89Z" fill="#1A1A1A" fill-opacity="0.9"/>
<path opacity="0.2" d="M825.568 1609.73H4.99805V1611.37H825.568V1609.73Z" fill="#1A1A1A" fill-opacity="0.9"/>
<path opacity="0.5" d="M825.568 1642.58H4.99805V1644.22H825.568V1642.58Z" fill="#1A1A1A" fill-opacity="0.9"/>
<path opacity="0.2" d="M825.568 1675.42H4.99805V1677.06H825.568V1675.42Z" fill="#1A1A1A" fill-opacity="0.9"/>
<path opacity="0.2" d="M825.568 1708.26H4.99805V1709.9H825.568V1708.26Z" fill="#1A1A1A" fill-opacity="0.9"/>
<path opacity="0.2" d="M825.568 1741.11H4.99805V1742.74H825.568V1741.11Z" fill="#1A1A1A" fill-opacity="0.9"/>
<path opacity="0.2" d="M825.568 1773.94H4.99805V1775.58H825.568V1773.94Z" fill="#1A1A1A" fill-opacity="0.9"/>
<path opacity="0.5" d="M825.568 1806.79H4.99805V1808.43H825.568V1806.79Z" fill="#1A1A1A" fill-opacity="0.9"/>
<path opacity="0.2" d="M825.568 1839.63H4.99805V1841.27H825.568V1839.63Z" fill="#1A1A1A" fill-opacity="0.9"/>
<path opacity="0.2" d="M825.568 1872.47H4.99805V1874.11H825.568V1872.47Z" fill="#1A1A1A" fill-opacity="0.9"/>
<path opacity="0.2" d="M825.568 1905.31H4.99805V1906.95H825.568V1905.31Z" fill="#1A1A1A" fill-opacity="0.9"/>
<path opacity="0.2" d="M825.568 1938.16H4.99805V1939.79H825.568V1938.16Z" fill="#1A1A1A" fill-opacity="0.9"/>
<path opacity="0.5" d="M825.569 1969.94H6.03125V1971.64H825.569V1969.94Z" fill="#1A1A1A" fill-opacity="0.9"/>
<path d="M6.55012 0H4.91211V11.4661H6.55012V0Z" fill="#1A1A1A" fill-opacity="0.9"/>
<path d="M11.4661 4.91309H0V6.5511H11.4661V4.91309Z" fill="#1A1A1A" fill-opacity="0.9"/>
<path d="M6.55012 163.801H4.91211V175.267H6.55012V163.801Z" fill="#1A1A1A" fill-opacity="0.9"/>
<path d="M11.4661 168.715H0V170.353H11.4661V168.715Z" fill="#1A1A1A" fill-opacity="0.9"/>
<path d="M6.55012 327.603H4.91211V339.069H6.55012V327.603Z" fill="#1A1A1A" fill-opacity="0.9"/>
<path d="M11.4661 332.516H0V334.154H11.4661V332.516Z" fill="#1A1A1A" fill-opacity="0.9"/>
<path d="M6.55012 491.403H4.91211V502.869H6.55012V491.403Z" fill="#1A1A1A" fill-opacity="0.9"/>
<path d="M11.4661 496.317H0V497.955H11.4661V496.317Z" fill="#1A1A1A" fill-opacity="0.9"/>
<path d="M6.55012 655.205H4.91211V666.671H6.55012V655.205Z" fill="#1A1A1A" fill-opacity="0.9"/>
<path d="M12.3157 660.118H0.849609V661.756H12.3157V660.118Z" fill="#1A1A1A" fill-opacity="0.9"/>
<path d="M170.351 0H168.713V11.4661H170.351V0Z" fill="#1A1A1A" fill-opacity="0.9"/>
<path d="M175.267 4.91309H163.801V6.5511H175.267V4.91309Z" fill="#1A1A1A" fill-opacity="0.9"/>
<path d="M170.351 163.801H168.713V175.267H170.351V163.801Z" fill="#1A1A1A" fill-opacity="0.9"/>
<path d="M175.267 168.715H163.801V170.353H175.267V168.715Z" fill="#1A1A1A" fill-opacity="0.9"/>
<path d="M170.351 327.603H168.713V339.069H170.351V327.603Z" fill="#1A1A1A" fill-opacity="0.9"/>
<path d="M175.267 332.516H163.801V334.154H175.267V332.516Z" fill="#1A1A1A" fill-opacity="0.9"/>
<path d="M170.351 491.403H168.713V502.869H170.351V491.403Z" fill="#1A1A1A" fill-opacity="0.9"/>
<path d="M175.267 496.317H163.801V497.955H175.267V496.317Z" fill="#1A1A1A" fill-opacity="0.9"/>
<path d="M170.351 655.205H168.713V666.671H170.351V655.205Z" fill="#1A1A1A" fill-opacity="0.9"/>
<path d="M175.267 660.118H163.801V661.756H175.267V660.118Z" fill="#1A1A1A" fill-opacity="0.9"/>
<path d="M334.156 0H332.518V11.4661H334.156V0Z" fill="#1A1A1A" fill-opacity="0.9"/>
<path d="M339.072 4.91309H327.605V6.5511H339.072V4.91309Z" fill="#1A1A1A" fill-opacity="0.9"/>
<path d="M334.156 163.801H332.518V175.267H334.156V163.801Z" fill="#1A1A1A" fill-opacity="0.9"/>
<path d="M339.072 168.715H327.605V170.353H339.072V168.715Z" fill="#1A1A1A" fill-opacity="0.9"/>
<path d="M334.156 327.603H332.518V339.069H334.156V327.603Z" fill="#1A1A1A" fill-opacity="0.9"/>
<path d="M339.072 332.516H327.605V334.154H339.072V332.516Z" fill="#1A1A1A" fill-opacity="0.9"/>
<path d="M334.156 491.403H332.518V502.869H334.156V491.403Z" fill="#1A1A1A" fill-opacity="0.9"/>
<path d="M339.072 496.317H327.605V497.955H339.072V496.317Z" fill="#1A1A1A" fill-opacity="0.9"/>
<path d="M334.156 655.205H332.518V666.671H334.156V655.205Z" fill="#1A1A1A" fill-opacity="0.9"/>
<path d="M339.072 660.118H327.605V661.756H339.072V660.118Z" fill="#1A1A1A" fill-opacity="0.9"/>
<path d="M497.954 0H496.316V11.4661H497.954V0Z" fill="#1A1A1A" fill-opacity="0.9"/>
<path d="M502.87 4.91309H491.404V6.5511H502.87V4.91309Z" fill="#1A1A1A" fill-opacity="0.9"/>
<path d="M497.954 163.801H496.316V175.267H497.954V163.801Z" fill="#1A1A1A" fill-opacity="0.9"/>
<path d="M502.87 168.715H491.404V170.353H502.87V168.715Z" fill="#1A1A1A" fill-opacity="0.9"/>
<path d="M497.954 327.603H496.316V339.069H497.954V327.603Z" fill="#1A1A1A" fill-opacity="0.9"/>
<path d="M502.87 332.516H491.404V334.154H502.87V332.516Z" fill="#1A1A1A" fill-opacity="0.9"/>
<path d="M497.954 491.403H496.316V502.869H497.954V491.403Z" fill="#1A1A1A" fill-opacity="0.9"/>
<path d="M502.87 496.317H491.404V497.955H502.87V496.317Z" fill="#1A1A1A" fill-opacity="0.9"/>
<path d="M497.954 655.205H496.316V666.671H497.954V655.205Z" fill="#1A1A1A" fill-opacity="0.9"/>
<path d="M502.87 660.118H491.404V661.756H502.87V660.118Z" fill="#1A1A1A" fill-opacity="0.9"/>
<path d="M661.757 0H660.119V11.4661H661.757V0Z" fill="#1A1A1A" fill-opacity="0.9"/>
<path d="M666.673 4.91309H655.207V6.5511H666.673V4.91309Z" fill="#1A1A1A" fill-opacity="0.9"/>
<path d="M661.757 163.802H660.119V175.268H661.757V163.802Z" fill="#1A1A1A" fill-opacity="0.9"/>
<path d="M666.673 168.715H655.207V170.353H666.673V168.715Z" fill="#1A1A1A" fill-opacity="0.9"/>
<path d="M661.757 327.601H660.119V339.067H661.757V327.601Z" fill="#1A1A1A" fill-opacity="0.9"/>
<path d="M666.673 332.514H655.207V334.152H666.673V332.514Z" fill="#1A1A1A" fill-opacity="0.9"/>
<path d="M661.757 491.404H660.119V502.87H661.757V491.404Z" fill="#1A1A1A" fill-opacity="0.9"/>
<path d="M666.673 496.317H655.207V497.955H666.673V496.317Z" fill="#1A1A1A" fill-opacity="0.9"/>
<path d="M661.757 655.205H660.119V666.671H661.757V655.205Z" fill="#1A1A1A" fill-opacity="0.9"/>
<path d="M666.673 660.118H655.207V661.756H666.673V660.118Z" fill="#1A1A1A" fill-opacity="0.9"/>
<path d="M825.665 0H824.027V11.4661H825.665V0Z" fill="#1A1A1A" fill-opacity="0.9"/>
<path d="M830.581 4.91309H819.115V6.5511H830.581V4.91309Z" fill="#1A1A1A" fill-opacity="0.9"/>
<path d="M825.665 163.802H824.027V175.268H825.665V163.802Z" fill="#1A1A1A" fill-opacity="0.9"/>
<path d="M830.581 168.715H819.115V170.353H830.581V168.715Z" fill="#1A1A1A" fill-opacity="0.9"/>
<path d="M825.665 327.601H824.027V339.067H825.665V327.601Z" fill="#1A1A1A" fill-opacity="0.9"/>
<path d="M830.581 332.514H819.115V334.152H830.581V332.514Z" fill="#1A1A1A" fill-opacity="0.9"/>
<path d="M825.665 491.404H824.027V502.87H825.665V491.404Z" fill="#1A1A1A" fill-opacity="0.9"/>
<path d="M830.581 496.317H819.115V497.955H830.581V496.317Z" fill="#1A1A1A" fill-opacity="0.9"/>
<path d="M825.665 655.205H824.027V666.671H825.665V655.205Z" fill="#1A1A1A" fill-opacity="0.9"/>
<path d="M830.581 660.118H819.115V661.756H830.581V660.118Z" fill="#1A1A1A" fill-opacity="0.9"/>
<path d="M662.177 818.688H660.539V830.154H662.177V818.688Z" fill="#1A1A1A" fill-opacity="0.9"/>
<path d="M667.093 823.601H655.627V825.239H667.093V823.601Z" fill="#1A1A1A" fill-opacity="0.9"/>
<path d="M662.177 982.488H660.539V993.954H662.177V982.488Z" fill="#1A1A1A" fill-opacity="0.9"/>
<path d="M667.093 987.401H655.627V989.039H667.093V987.401Z" fill="#1A1A1A" fill-opacity="0.9"/>
<path d="M662.177 1146.29H660.539V1157.76H662.177V1146.29Z" fill="#1A1A1A" fill-opacity="0.9"/>
<path d="M667.093 1151.2H655.627V1152.84H667.093V1151.2Z" fill="#1A1A1A" fill-opacity="0.9"/>
<path d="M662.177 1310.09H660.539V1321.56H662.177V1310.09Z" fill="#1A1A1A" fill-opacity="0.9"/>
<path d="M667.093 1315H655.627V1316.64H667.093V1315Z" fill="#1A1A1A" fill-opacity="0.9"/>
<path d="M334.365 818.688H332.727V830.154H334.365V818.688Z" fill="#1A1A1A" fill-opacity="0.9"/>
<path d="M339.281 823.601H327.814V825.239H339.281V823.601Z" fill="#1A1A1A" fill-opacity="0.9"/>
<path d="M334.365 982.488H332.727V993.954H334.365V982.488Z" fill="#1A1A1A" fill-opacity="0.9"/>
<path d="M339.281 987.401H327.814V989.039H339.281V987.401Z" fill="#1A1A1A" fill-opacity="0.9"/>
<path d="M334.365 1146.29H332.727V1157.76H334.365V1146.29Z" fill="#1A1A1A" fill-opacity="0.9"/>
<path d="M339.281 1151.2H327.814V1152.84H339.281V1151.2Z" fill="#1A1A1A" fill-opacity="0.9"/>
<path d="M334.365 1310.09H332.727V1321.56H334.365V1310.09Z" fill="#1A1A1A" fill-opacity="0.9"/>
<path d="M339.281 1315H327.814V1316.64H339.281V1315Z" fill="#1A1A1A" fill-opacity="0.9"/>
<path d="M169.611 818.688H167.973V830.154H169.611V818.688Z" fill="#1A1A1A" fill-opacity="0.9"/>
<path d="M174.527 823.601H163.061V825.239H174.527V823.601Z" fill="#1A1A1A" fill-opacity="0.9"/>
<path d="M169.611 982.488H167.973V993.954H169.611V982.488Z" fill="#1A1A1A" fill-opacity="0.9"/>
<path d="M174.527 987.401H163.061V989.039H174.527V987.401Z" fill="#1A1A1A" fill-opacity="0.9"/>
<path d="M169.611 1146.29H167.973V1157.76H169.611V1146.29Z" fill="#1A1A1A" fill-opacity="0.9"/>
<path d="M174.527 1151.2H163.061V1152.84H174.527V1151.2Z" fill="#1A1A1A" fill-opacity="0.9"/>
<path d="M169.611 1310.09H167.973V1321.56H169.611V1310.09Z" fill="#1A1A1A" fill-opacity="0.9"/>
<path d="M174.527 1315H163.061V1316.64H174.527V1315Z" fill="#1A1A1A" fill-opacity="0.9"/>
<path d="M7.39973 818.688H5.76172V830.154H7.39973V818.688Z" fill="#1A1A1A" fill-opacity="0.9"/>
<path d="M12.3157 823.601H0.849609V825.239H12.3157V823.601Z" fill="#1A1A1A" fill-opacity="0.9"/>
<path d="M7.39973 982.488H5.76172V993.954H7.39973V982.488Z" fill="#1A1A1A" fill-opacity="0.9"/>
<path d="M12.3157 987.401H0.849609V989.039H12.3157V987.401Z" fill="#1A1A1A" fill-opacity="0.9"/>
<path d="M7.39973 1146.29H5.76172V1157.76H7.39973V1146.29Z" fill="#1A1A1A" fill-opacity="0.9"/>
<path d="M12.3157 1151.2H0.849609V1152.84H12.3157V1151.2Z" fill="#1A1A1A" fill-opacity="0.9"/>
<path d="M7.39973 1310.09H5.76172V1321.56H7.39973V1310.09Z" fill="#1A1A1A" fill-opacity="0.9"/>
<path d="M12.3157 1315H0.849609V1316.64H12.3157V1315Z" fill="#1A1A1A" fill-opacity="0.9"/>
<path d="M826.083 818.688H824.445V830.154H826.083V818.688Z" fill="#1A1A1A" fill-opacity="0.9"/>
<path d="M830.999 823.601H819.533V825.239H830.999V823.601Z" fill="#1A1A1A" fill-opacity="0.9"/>
<path d="M826.083 982.488H824.445V993.954H826.083V982.488Z" fill="#1A1A1A" fill-opacity="0.9"/>
<path d="M830.999 987.401H819.533V989.039H830.999V987.401Z" fill="#1A1A1A" fill-opacity="0.9"/>
<path d="M826.083 1146.29H824.445V1157.76H826.083V1146.29Z" fill="#1A1A1A" fill-opacity="0.9"/>
<path d="M830.999 1151.2H819.533V1152.84H830.999V1151.2Z" fill="#1A1A1A" fill-opacity="0.9"/>
<path d="M826.083 1310.09H824.445V1321.56H826.083V1310.09Z" fill="#1A1A1A" fill-opacity="0.9"/>
<path d="M830.999 1315H819.533V1316.64H830.999V1315Z" fill="#1A1A1A" fill-opacity="0.9"/>
<path d="M498.275 818.688H496.637V830.154H498.275V818.688Z" fill="#1A1A1A" fill-opacity="0.9"/>
<path d="M503.191 823.601H491.725V825.239H503.191V823.601Z" fill="#1A1A1A" fill-opacity="0.9"/>
<path d="M498.275 982.488H496.637V993.954H498.275V982.488Z" fill="#1A1A1A" fill-opacity="0.9"/>
<path d="M503.191 987.401H491.725V989.039H503.191V987.401Z" fill="#1A1A1A" fill-opacity="0.9"/>
<path d="M498.275 1146.29H496.637V1157.76H498.275V1146.29Z" fill="#1A1A1A" fill-opacity="0.9"/>
<path d="M503.191 1151.2H491.725V1152.84H503.191V1151.2Z" fill="#1A1A1A" fill-opacity="0.9"/>
<path d="M498.275 1310.09H496.637V1321.56H498.275V1310.09Z" fill="#1A1A1A" fill-opacity="0.9"/>
<path d="M503.191 1315H491.725V1316.64H503.191V1315Z" fill="#1A1A1A" fill-opacity="0.9"/>
<path d="M662.179 1474H660.541V1485.47H662.179V1474Z" fill="#1A1A1A" fill-opacity="0.9"/>
<path d="M667.095 1478.91H655.629V1480.55H667.095V1478.91Z" fill="#1A1A1A" fill-opacity="0.9"/>
<path d="M662.179 1637.8H660.541V1649.27H662.179V1637.8Z" fill="#1A1A1A" fill-opacity="0.9"/>
<path d="M667.095 1642.71H655.629V1644.35H667.095V1642.71Z" fill="#1A1A1A" fill-opacity="0.9"/>
<path d="M662.179 1801.6H660.541V1813.07H662.179V1801.6Z" fill="#1A1A1A" fill-opacity="0.9"/>
<path d="M667.095 1806.52H655.629V1808.15H667.095V1806.52Z" fill="#1A1A1A" fill-opacity="0.9"/>
<path d="M662.179 1965.4H660.541V1976.87H662.179V1965.4Z" fill="#1A1A1A" fill-opacity="0.9"/>
<path d="M667.095 1970.32H655.629V1971.96H667.095V1970.32Z" fill="#1A1A1A" fill-opacity="0.9"/>
<path d="M334.367 1473H332.729V1484.47H334.367V1473Z" fill="#1A1A1A" fill-opacity="0.9"/>
<path d="M339.282 1477.91H327.816V1479.55H339.282V1477.91Z" fill="#1A1A1A" fill-opacity="0.9"/>
<path d="M334.367 1636.8H332.729V1648.27H334.367V1636.8Z" fill="#1A1A1A" fill-opacity="0.9"/>
<path d="M339.282 1641.71H327.816V1643.35H339.282V1641.71Z" fill="#1A1A1A" fill-opacity="0.9"/>
<path d="M334.367 1800.6H332.729V1812.07H334.367V1800.6Z" fill="#1A1A1A" fill-opacity="0.9"/>
<path d="M339.282 1805.52H327.816V1807.15H339.282V1805.52Z" fill="#1A1A1A" fill-opacity="0.9"/>
<path d="M334.367 1964.4H332.729V1975.87H334.367V1964.4Z" fill="#1A1A1A" fill-opacity="0.9"/>
<path d="M339.282 1969.32H327.816V1970.96H339.282V1969.32Z" fill="#1A1A1A" fill-opacity="0.9"/>
<path d="M169.613 1473H167.975V1484.47H169.613V1473Z" fill="#1A1A1A" fill-opacity="0.9"/>
<path d="M174.529 1477.91H163.062V1479.55H174.529V1477.91Z" fill="#1A1A1A" fill-opacity="0.9"/>
<path d="M169.613 1636.8H167.975V1648.27H169.613V1636.8Z" fill="#1A1A1A" fill-opacity="0.9"/>
<path d="M174.529 1641.71H163.062V1643.35H174.529V1641.71Z" fill="#1A1A1A" fill-opacity="0.9"/>
<path d="M169.613 1800.6H167.975V1812.07H169.613V1800.6Z" fill="#1A1A1A" fill-opacity="0.9"/>
<path d="M174.529 1805.52H163.062V1807.15H174.529V1805.52Z" fill="#1A1A1A" fill-opacity="0.9"/>
<path d="M169.613 1964.4H167.975V1975.87H169.613V1964.4Z" fill="#1A1A1A" fill-opacity="0.9"/>
<path d="M174.529 1969.32H163.062V1970.96H174.529V1969.32Z" fill="#1A1A1A" fill-opacity="0.9"/>
<path d="M7.40168 1473H5.76367V1484.47H7.40168V1473Z" fill="#1A1A1A" fill-opacity="0.9"/>
<path d="M12.3176 1477.91H0.851562V1479.55H12.3176V1477.91Z" fill="#1A1A1A" fill-opacity="0.9"/>
<path d="M7.40168 1636.8H5.76367V1648.27H7.40168V1636.8Z" fill="#1A1A1A" fill-opacity="0.9"/>
<path d="M12.3176 1641.71H0.851562V1643.35H12.3176V1641.71Z" fill="#1A1A1A" fill-opacity="0.9"/>
<path d="M7.40168 1800.6H5.76367V1812.07H7.40168V1800.6Z" fill="#1A1A1A" fill-opacity="0.9"/>
<path d="M12.3176 1805.52H0.851562V1807.15H12.3176V1805.52Z" fill="#1A1A1A" fill-opacity="0.9"/>
<path d="M7.40168 1964.4H5.76367V1975.87H7.40168V1964.4Z" fill="#1A1A1A" fill-opacity="0.9"/>
<path d="M12.3176 1969.32H0.851562V1970.96H12.3176V1969.32Z" fill="#1A1A1A" fill-opacity="0.9"/>
<path d="M826.085 1473H824.447V1484.47H826.085V1473Z" fill="#1A1A1A" fill-opacity="0.9"/>
<path d="M831.001 1477.91H819.535V1479.55H831.001V1477.91Z" fill="#1A1A1A" fill-opacity="0.9"/>
<path d="M826.085 1636.8H824.447V1648.27H826.085V1636.8Z" fill="#1A1A1A" fill-opacity="0.9"/>
<path d="M831.001 1641.71H819.535V1643.35H831.001V1641.71Z" fill="#1A1A1A" fill-opacity="0.9"/>
<path d="M826.085 1800.6H824.447V1812.07H826.085V1800.6Z" fill="#1A1A1A" fill-opacity="0.9"/>
<path d="M831.001 1805.52H819.535V1807.15H831.001V1805.52Z" fill="#1A1A1A" fill-opacity="0.9"/>
<path d="M826.085 1964.4H824.447V1975.87H826.085V1964.4Z" fill="#1A1A1A" fill-opacity="0.9"/>
<path d="M831.001 1969.32H819.535V1970.96H831.001V1969.32Z" fill="#1A1A1A" fill-opacity="0.9"/>
<path d="M498.277 1473H496.639V1484.47H498.277V1473Z" fill="#1A1A1A" fill-opacity="0.9"/>
<path d="M503.193 1477.91H491.727V1479.55H503.193V1477.91Z" fill="#1A1A1A" fill-opacity="0.9"/>
<path d="M498.277 1636.8H496.639V1648.27H498.277V1636.8Z" fill="#1A1A1A" fill-opacity="0.9"/>
<path d="M503.193 1641.71H491.727V1643.35H503.193V1641.71Z" fill="#1A1A1A" fill-opacity="0.9"/>
<path d="M498.277 1800.6H496.639V1812.07H498.277V1800.6Z" fill="#1A1A1A" fill-opacity="0.9"/>
<path d="M503.193 1805.52H491.727V1807.15H503.193V1805.52Z" fill="#1A1A1A" fill-opacity="0.9"/>
<path d="M498.277 1964.4H496.639V1975.87H498.277V1964.4Z" fill="#1A1A1A" fill-opacity="0.9"/>
<path d="M503.193 1969.32H491.727V1970.96H503.193V1969.32Z" fill="#1A1A1A" fill-opacity="0.9"/>
</svg>
